<?xml version="1.0" encoding="UTF-8" standalone="no"?>
<!-- Created with Inkscape (http://www.inkscape.org/) -->

<svg
   width="56"
   height="18"
   viewBox="0 0 14.816665 4.7624995"
   version="1.1"
   id="svg5"
   inkscape:version="1.2.2 (b0a8486541, 2022-12-01)"
   sodipodi:docname="logo.svg"
   inkscape:export-filename="logo.png"
   inkscape:export-xdpi="1024"
   inkscape:export-ydpi="1024"
   xmlns:inkscape="http://www.inkscape.org/namespaces/inkscape"
   xmlns:sodipodi="http://sodipodi.sourceforge.net/DTD/sodipodi-0.dtd"
   xmlns="http://www.w3.org/2000/svg"
   xmlns:svg="http://www.w3.org/2000/svg">
  <sodipodi:namedview
     id="namedview7"
     pagecolor="#ffffff"
     bordercolor="#000000"
     borderopacity="0.25"
     inkscape:showpageshadow="2"
     inkscape:pageopacity="0"
     inkscape:pagecheckerboard="0"
     inkscape:deskcolor="#d1d1d1"
     inkscape:document-units="px"
     showgrid="true"
     showguides="true"
     inkscape:zoom="10.991072"
     inkscape:cx="25.247765"
     inkscape:cy="11.78229"
     inkscape:window-width="3440"
     inkscape:window-height="1359"
     inkscape:window-x="0"
     inkscape:window-y="0"
     inkscape:window-maximized="1"
     inkscape:current-layer="layer1">
    <inkscape:grid
       type="xygrid"
       id="grid398"
       originx="0"
       originy="0" />
  </sodipodi:namedview>
  <defs
     id="defs2" />
  <g
     inkscape:label="Layer 1"
     inkscape:groupmode="layer"
     id="layer1">
    <path
       id="rect517"
       style="fill:#1a1a1a;fill-rule:evenodd;stroke-width:0.3;stroke-linecap:round;stroke-linejoin:round;stop-color:#000000"
       d="M 1.0583332,0 H 13.758332 c 0.79375,0 1.058333,0.2645833 1.058333,1.0583332 v 2.6458331 c 0,0.7937499 -0.264583,1.0583332 -1.058333,1.0583332 l -12.6999988,0 C 0.2645833,4.7624995 0,4.4979162 0,3.7041663 V 1.0583332 C 0,0.2645833 0.2645833,0 1.0583332,0 Z"
       sodipodi:nodetypes="ccccccccc" />
    <g
       id="g1882"
       style="fill:#cccccc;fill-opacity:1">
      <path
         id="path691"
         style="fill:#cccccc;fill-opacity:1;fill-rule:evenodd;stroke:none;stroke-width:0.3;stroke-linecap:round;stroke-linejoin:round;stop-color:#000000"
         d="m 5.8208327,2.1166664 h 0.2645834 c 0.2645833,0 0.2645833,0 0.2645833,-0.2645833 0,-0.264583 0,-0.264583 -0.2645833,-0.264583 H 5.8208328 v 0.5291663 m -10e-8,-0.5291663 V 2.1166664 M 5.2916661,1.0583338 V 3.7041662 H 5.8208328 V 2.645833 h 0.5291666 c 0.2645833,0 0.5291666,-0.2645833 0.5291666,-0.5291666 V 1.5875001 c 0,-0.2645832 -0.2645833,-0.5291663 -0.5291666,-0.5291663 H 5.2916662"
         sodipodi:nodetypes="ccccccccccccccccc" />
      <g
         id="g706"
         transform="translate(0.52916662,0.79374994)"
         style="fill:#cccccc;fill-opacity:1">
        <path
           id="path694"
           style="fill:#cccccc;fill-opacity:1;fill-rule:evenodd;stroke:none;stroke-width:0.3;stroke-linecap:round;stroke-linejoin:round;stop-color:#000000"
           d="m 1.0583331,1.3229165 h 0.2645834 c 0.2645833,0 0.2645833,0 0.2645833,-0.2645833 0,-0.2645832 0,-0.2645832 -0.2645833,-0.2645832 H 1.0583332 v 0.5291665 m -1e-7,-0.52916651 V 1.3229165 M 0.52916654,0.26458339 V 2.9104163 H 1.0583332 V 1.8520831 h 0.5291666 c 0.2645833,0 0.5291666,-0.2645833 0.5291666,-0.5291666 V 0.79375 c 0,-0.26458333 -0.2645833,-0.52916664 -0.5291666,-0.52916661 H 0.52916664"
           sodipodi:nodetypes="ccccccccccccccccc" />
        <path
           style="fill:#cccccc;fill-opacity:1;fill-rule:evenodd;stroke:none;stroke-width:0.3;stroke-linecap:round;stroke-linejoin:round;stop-color:#000000"
           d="m 1.0583332,1.3229165 c 0.5291666,0 1.0583332,0.5291666 1.0583332,1.0583332 V 2.9104163 H 1.5874998 V 2.3812497 c 0,-0.2645833 -0.2645833,-0.5291666 -0.5291666,-0.5291666 z"
           id="path700"
           sodipodi:nodetypes="ccccccc" />
      </g>
      <path
         style="fill:#cccccc;fill-opacity:1;fill-rule:evenodd;stroke:none;stroke-width:0.3;stroke-linecap:round;stroke-linejoin:round;stop-color:#000000"
         d="M 3.1749997,1.0583338 H 4.7624995 V 1.5875003 H 3.7041663 V 2.1166664 H 4.4979162 V 2.645833 H 3.7041663 V 3.1749996 H 4.7624995 V 3.7041662 H 3.1749997 V 1.0583338"
         id="use818"
         sodipodi:nodetypes="ccccccccccccc" />
    </g>
    <g
       id="g1875"
       style="fill:#666666;fill-opacity:1"
       transform="translate(6.3499993,-3.7041663)">
      <path
         style="fill:#666666;fill-opacity:1;fill-rule:evenodd;stroke:none;stroke-width:0.3;stroke-linecap:round;stroke-linejoin:round;stop-color:#000000"
         d="M 3.7041663,4.7624997 H 5.291666 V 5.2916663 H 4.2333328 V 5.8208327 H 5.027083 V 6.3499993 H 4.2333328 V 6.8791659 H 5.291666 V 7.4083325 H 3.7041663 V 4.7624997"
         id="path685"
         sodipodi:nodetypes="ccccccccccccc" />
      <g
         id="use816"
         style="fill:#666666;fill-opacity:1"
         transform="translate(1.0583332,4.4979162)">
        <path
           id="path822"
           style="fill:#666666;fill-opacity:1;fill-rule:evenodd;stroke:none;stroke-width:0.3;stroke-linecap:round;stroke-linejoin:round;stop-color:#000000"
           d="m 1.0583331,1.3229165 h 0.2645834 c 0.2645833,0 0.2645833,0 0.2645833,-0.2645833 0,-0.2645832 0,-0.2645832 -0.2645833,-0.2645832 H 1.0583332 v 0.5291665 m -1e-7,-0.52916651 V 1.3229165 M 0.52916654,0.26458339 V 2.9104163 H 1.0583332 V 1.8520831 h 0.5291666 c 0.2645833,0 0.5291666,-0.2645833 0.5291666,-0.5291666 V 0.79375 c 0,-0.26458333 -0.2645833,-0.52916664 -0.5291666,-0.52916661 H 0.52916664"
           sodipodi:nodetypes="ccccccccccccccccc" />
        <path
           style="fill:#666666;fill-opacity:1;fill-rule:evenodd;stroke:none;stroke-width:0.3;stroke-linecap:round;stroke-linejoin:round;stop-color:#000000"
           d="m 1.0583332,1.3229165 c 0.5291666,0 1.0583332,0.5291666 1.0583332,1.0583332 V 2.9104163 H 1.5874998 V 2.3812497 c 0,-0.2645833 -0.2645833,-0.5291666 -0.5291666,-0.5291666 z"
           id="path824"
           sodipodi:nodetypes="ccccccc" />
      </g>
      <path
         id="use820"
         style="fill:#666666;fill-opacity:1;fill-rule:evenodd;stroke:none;stroke-width:0.3;stroke-linecap:round;stroke-linejoin:round;stop-color:#000000"
         d="m 6.3499993,5.8208327 h 0.2645834 c 0.2645833,0 0.2645833,0 0.2645833,-0.2645833 0,-0.2645832 0,-0.2645832 -0.2645833,-0.2645832 H 6.3499994 v 0.5291665 m -10e-8,-0.5291665 V 5.8208327 M 5.8208327,4.7624997 V 7.4083326 H 6.3499994 V 6.3499994 H 6.879166 c 0.2645833,0 0.5291666,-0.2645833 0.5291666,-0.5291666 V 5.2916662 c 0,-0.2645832 -0.2645833,-0.5291665 -0.5291666,-0.5291665 H 5.8208328"
         sodipodi:nodetypes="ccccccccccccccccc" />
    </g>
  </g>
</svg>
